<?xml version="1.0" encoding="UTF-8" standalone="no"?>
<svg width="143px" height="371px" viewBox="0 0 143 371" version="1.1" xmlns="http://www.w3.org/2000/svg" xmlns:xlink="http://www.w3.org/1999/xlink">
    <!-- Generator: Sketch 40.3 (33839) - http://www.bohemiancoding.com/sketch -->
    <title>mobile-top</title>
    <desc>Created with Sketch.</desc>
    <defs>
        <path d="M24.1529813,2.78557041 C10.813658,-3.88072675 2.91495102e-13,2.80211463 3.06434088e-13,17.7185675 L5.78558901e-13,289.432934 C5.87963277e-13,298.823125 6.79688407,309.850642 15.1858652,314.065893 L115.577341,364.510077 C126.923852,370.211412 136.135245,364.53619 136.151571,351.828986 L136.507309,74.9348453 C136.518654,66.1037112 130.12595,55.7453264 122.207149,51.787923 L24.1529813,2.78557041 Z" id="path-1"></path>
        <filter x="-50%" y="-50%" width="200%" height="200%" filterUnits="objectBoundingBox" id="filter-3">
            <feMorphology radius="1" operator="dilate" in="SourceAlpha" result="shadowSpreadOuter1"></feMorphology>
            <feOffset dx="4" dy="-1" in="shadowSpreadOuter1" result="shadowOffsetOuter1"></feOffset>
            <feColorMatrix values="0 0 0 0 0.132839073   0 0 0 0 0.132839073   0 0 0 0 0.132839073  0 0 0 1 0" type="matrix" in="shadowOffsetOuter1"></feColorMatrix>
        </filter>
    </defs>
    <g id="Page-1" stroke="none" stroke-width="1" fill="none" fill-rule="evenodd">
        <g id="Artboard" transform="translate(-650.000000, -541.000000)">
            <g id="mobile-top" transform="translate(650.000000, 544.000000)">
                <g id="Path-4">
                    <mask id="mask-2" fill="white">
                        <use xlink:href="#path-1"></use>
                    </mask>
                    <g id="Mask">
                        <use fill="black" fill-opacity="1" filter="url(#filter-3)" xlink:href="#path-1"></use>
                        <use fill="#242424" fill-rule="evenodd" xlink:href="#path-1"></use>
                    </g>
                    <polygon fill="#1E1E1E" opacity="0.322994403" mask="url(#mask-2)" points="0 34 139 104 136 38.1286897 96.6410415 22.3489271 -4 -18"></polygon>
                </g>
                <polygon id="Rectangle-3" fill="#353535" opacity="0.312441698" points="117 123 117 128 46 93 46 88"></polygon>
                <polygon id="Rectangle-3" fill="#353535" opacity="0.205165578" points="117 132 117 137 46 102 46 97"></polygon>
                <path d="M11.6259843,55.7620097 L36.3740157,69.9972138 C37.272022,70.4394241 38,71.516756 38,72.3992891 L38,100.867781 C38,101.7522 37.270107,102.109738 36.3740157,101.668471 L11.6259843,89.4332668 C10.727978,88.9910564 10,87.9137245 10,87.0311914 L10,56.5626997 C10,55.6782804 10.729893,55.3207423 11.6259843,55.7620097 Z" id="Rectangle-40" fill="#202020"></path>
                <polygon id="Rectangle-42" fill="#353535" points="80 95 80 101 47 84 47 78"></polygon>
                <polygon id="Rectangle-3" fill="#353535" opacity="0.312441698" points="117 173 117 178 46 143 46 138"></polygon>
                <polygon id="Rectangle-3" fill="#353535" opacity="0.205165578" points="117 182 117 187 46 152 46 147"></polygon>
                <path d="M11.6259843,105.76201 L36.3740157,119.997214 C37.272022,120.439424 38,121.516756 38,122.399289 L38,150.867781 C38,151.7522 37.270107,152.109738 36.3740157,151.668471 L11.6259843,139.433267 C10.727978,138.991056 10,137.913725 10,137.031191 L10,106.5627 C10,105.67828 10.729893,105.320742 11.6259843,105.76201 Z" id="Rectangle-40" fill="#202020" opacity="0.5"></path>
                <polygon id="Rectangle-42" fill="#353535" points="80 145 80 151 47 134 47 128"></polygon>
                <polygon id="Rectangle-3" fill="#353535" opacity="0.312441698" points="117 223 117 228 46 193 46 188"></polygon>
                <polygon id="Rectangle-3" fill="#353535" opacity="0.205165578" points="117 232 117 237 46 202 46 197"></polygon>
                <path d="M11.6259843,155.76201 L36.3740157,169.997214 C37.272022,170.439424 38,171.516756 38,172.399289 L38,200.867781 C38,201.7522 37.270107,202.109738 36.3740157,201.668471 L11.6259843,189.433267 C10.727978,188.991056 10,187.913725 10,187.031191 L10,156.5627 C10,155.67828 10.729893,155.320742 11.6259843,155.76201 Z" id="Rectangle-40" fill="#202020"></path>
                <polygon id="Rectangle-42" fill="#353535" points="80 195 80 201 47 184 47 178"></polygon>
                <polygon id="Rectangle-3" fill="#353535" opacity="0.312441698" points="117 273 117 278 46 243 46 238"></polygon>
                <polygon id="Rectangle-3" fill="#353535" opacity="0.205165578" points="117 282 117 287 46 252 46 247"></polygon>
                <path d="M11.6259843,205.76201 L36.3740157,219.997214 C37.272022,220.439424 38,221.516756 38,222.399289 L38,250.867781 C38,251.7522 37.270107,252.109738 36.3740157,251.668471 L11.6259843,239.433267 C10.727978,238.991056 10,237.913725 10,237.031191 L10,206.5627 C10,205.67828 10.729893,205.320742 11.6259843,205.76201 Z" id="Rectangle-40" fill="#202020" opacity="0.5"></path>
                <polygon id="Rectangle-42" fill="#353535" points="80 245 80 251 47 234 47 228"></polygon>
                <polygon id="Rectangle-3" fill="#353535" opacity="0.312441698" points="117 323 117 328 46 293 46 288"></polygon>
                <polygon id="Rectangle-3" fill="#353535" opacity="0.205165578" points="117 332 117 337 46 302 46 297"></polygon>
                <path d="M11.6259843,255.76201 L36.3740157,269.997214 C37.272022,270.439424 38,271.516756 38,272.399289 L38,300.867781 C38,301.7522 37.270107,302.109738 36.3740157,301.668471 L11.6259843,289.433267 C10.727978,288.991056 10,287.913725 10,287.031191 L10,256.5627 C10,255.67828 10.729893,255.320742 11.6259843,255.76201 Z" id="Rectangle-40" fill="#202020"></path>
                <polygon id="Rectangle-42" fill="#353535" points="80 295 80 301 47 284 47 278"></polygon>
            </g>
        </g>
    </g>
</svg>