<?xml version="1.0" encoding="UTF-8" standalone="no"?>
<svg width="444px" height="601px" viewBox="0 0 444 601" version="1.1" xmlns="http://www.w3.org/2000/svg" xmlns:xlink="http://www.w3.org/1999/xlink">
    <!-- Generator: Sketch 40.3 (33839) - http://www.bohemiancoding.com/sketch -->
    <title>browser-icon</title>
    <desc>Created with Sketch.</desc>
    <defs>
        <path d="M27.8355826,2.90750678 C12.9429498,-4.35608638 0.870085505,3.1915844 0.870085505,19.7649019 L0.870085505,373.284788 C0.870085505,382.122189 7.3034761,392.438233 15.2324093,396.32286 L410.545076,589.998645 C422.946588,596.074526 433.006959,589.808387 433.015548,575.993544 L433.242095,211.634652 C433.245871,205.562481 428.828687,198.484126 423.353851,195.813881 L27.8355826,2.90750678 Z" id="path-1"></path>
        <filter x="-50%" y="-50%" width="200%" height="200%" filterUnits="objectBoundingBox" id="filter-3">
            <feMorphology radius="2" operator="dilate" in="SourceAlpha" result="shadowSpreadOuter1"></feMorphology>
            <feOffset dx="6" dy="-1" in="shadowSpreadOuter1" result="shadowOffsetOuter1"></feOffset>
            <feColorMatrix values="0 0 0 0 0.128746811   0 0 0 0 0.128746811   0 0 0 0 0.128746811  0 0 0 1 0" type="matrix" in="shadowOffsetOuter1"></feColorMatrix>
        </filter>
        <linearGradient x1="2.31235661%" y1="12.0213749%" x2="89.8827159%" y2="84.4548432%" id="linearGradient-4">
            <stop stop-color="#444444" offset="0%"></stop>
            <stop stop-color="#353535" offset="100%"></stop>
        </linearGradient>
    </defs>
    <g id="Page-1" stroke="none" stroke-width="1" fill="none" fill-rule="evenodd">
        <g id="Artboard" transform="translate(-810.000000, -158.000000)">
            <g id="browser-icon" transform="translate(810.000000, 163.000000)">
                <circle id="Oval-3" fill="#2C2722" cx="214" cy="251" r="3"></circle>
                <g id="Path-8">
                    <mask id="mask-2" fill="white">
                        <use xlink:href="#path-1"></use>
                    </mask>
                    <g id="Mask" opacity="0.857684235">
                        <use fill="black" fill-opacity="1" filter="url(#filter-3)" xlink:href="#path-1"></use>
                        <use fill="#242424" fill-rule="evenodd" xlink:href="#path-1"></use>
                    </g>
                    <polyline fill="url(#linearGradient-4)" opacity="0.407357743" mask="url(#mask-2)" points="489 269 -9 25 -10 214 489 457"></polyline>
                </g>
                <path d="M242.701918,207.538293 C242.701918,191.962129 232.471195,176.031571 219.850959,171.956396 C207.230723,167.881221 197,177.204616 197,192.780781 C197,208.356945 207.230723,224.287503 219.850959,228.362678 C232.471195,232.437853 242.701918,223.114458 242.701918,207.538293 Z" id="Oval-9" fill="#252525" opacity="0.689657183"></path>
                <path d="M118.580272,206.147017 L169.195118,231.085854 C170.067879,231.515878 170.775391,232.762694 170.775391,233.855277 L170.775391,249.873687 C170.775391,250.973173 170.065869,251.514888 169.195118,251.085854 L118.580272,226.147017 C117.707512,225.716992 117,224.470176 117,223.377593 L117,207.359183 C117,206.259698 117.709521,205.717982 118.580272,206.147017 Z" id="Rectangle-38" fill="#252525" opacity="0.504372668"></path>
                <path d="M182.580272,238.147017 L233.195118,263.085854 C234.067879,263.515878 234.775391,264.762694 234.775391,265.855277 L234.775391,281.873687 C234.775391,282.973173 234.065869,283.514888 233.195118,283.085854 L182.580272,258.147017 C181.707512,257.716992 181,256.470176 181,255.377593 L181,239.359183 C181,238.259698 181.709521,237.717982 182.580272,238.147017 Z" id="Rectangle-38-Copy" fill="#FE8A4D"></path>
                <path d="M247.580272,270.147017 L298.195118,295.085854 C299.067879,295.515878 299.775391,296.762694 299.775391,297.855277 L299.775391,313.873687 C299.775391,314.973173 299.065869,315.514888 298.195118,315.085854 L247.580272,290.147017 C246.707512,289.716992 246,288.470176 246,287.377593 L246,271.359183 C246,270.259698 246.709521,269.717982 247.580272,270.147017 Z" id="Rectangle-38-Copy-2" fill="#252525" opacity="0.504372668"></path>
                <path d="M266.276453,394.449966 C267.098383,394.919484 267.764689,396.193646 267.764689,397.302863 L267.764689,406.297343 C267.764689,407.403437 267.106944,407.924374 266.276453,407.449966 L92.4882365,322.175593 C91.6663062,321.706075 91,320.431913 91,319.322696 L91,310.328216 C91,309.222122 91.6577454,308.701185 92.4882365,309.175593 L266.276453,394.449966 Z" id="Rectangle-41" fill="#353535"></path>
                <path d="M266.276453,420.449966 C267.098383,420.919484 267.764689,422.193646 267.764689,423.302863 L267.764689,432.297343 C267.764689,433.403437 267.106944,433.924374 266.276453,433.449966 L92.4882365,348.175593 C91.6663062,347.706075 91,346.431913 91,345.322696 L91,336.328216 C91,335.222122 91.6577454,334.701185 92.4882365,335.175593 L266.276453,420.449966 Z" id="Rectangle-41" fill="#353535" opacity="0.626107743"></path>
            </g>
        </g>
    </g>
</svg>